<?xml version="1.0" standalone="no"?>
<!DOCTYPE svg PUBLIC "-//W3C//DTD SVG 20010904//EN"
 "http://www.w3.org/TR/2001/REC-SVG-20010904/DTD/svg10.dtd">
<svg version="1.0" xmlns="http://www.w3.org/2000/svg"
 width="40.000000pt" height="40.000000pt" viewBox="0 0 512.000000 512.000000"
 preserveAspectRatio="xMidYMid meet">

<g transform="translate(0.000000,512.000000) scale(0.100000,-0.100000)"
fill="#c23c23" stroke="none">
<path d="M2370 5113 c-379 -36 -661 -116 -980 -278 -378 -193 -717 -497 -965
-865 -104 -156 -232 -419 -294 -605 -49 -150 -89 -321 -113 -490 -17 -118 -17
-512 0 -630 42 -295 120 -553 242 -800 137 -280 272 -468 494 -691 221 -220
412 -357 681 -489 188 -92 309 -137 500 -185 500 -126 1002 -102 1490 71 149
53 407 182 540 271 365 243 667 578 866 963 181 348 271 694 286 1090 15 426
-73 832 -263 1214 -124 250 -263 447 -458 648 -216 224 -428 378 -711 518
-296 146 -572 225 -900 255 -102 9 -333 11 -415 3z m48 -1559 c63 -31 106 -81
128 -148 19 -57 15 -136 -11 -187 -9 -19 -99 -116 -198 -216 l-182 -183 717 0
c481 0 734 -4 768 -11 64 -14 125 -60 165 -124 26 -43 30 -57 30 -124 0 -65
-4 -83 -27 -122 -15 -26 -42 -59 -60 -74 -74 -63 -34 -60 -846 -65 l-742 -5
176 -175 c96 -96 184 -192 196 -214 86 -165 -38 -366 -226 -366 -112 0 -119 6
-572 461 -227 228 -420 430 -430 449 -26 48 -26 172 0 220 10 19 203 221 430
449 453 455 460 461 572 461 45 0 73 -7 112 -26z"/>
</g>
</svg>
